<?xml version="1.0" standalone="no"?><!DOCTYPE svg PUBLIC "-//W3C//DTD SVG 1.1//EN" "http://www.w3.org/Graphics/SVG/1.1/DTD/svg11.dtd"><svg t="1773329383040" class="icon" viewBox="0 0 1152 1024" version="1.1" xmlns="http://www.w3.org/2000/svg" p-id="4953" xmlns:xlink="http://www.w3.org/1999/xlink" width="225" height="200"><path d="M55.364267 501.464178c-11.241244 0-22.596267-4.346311-31.197867-13.061689a45.033244 45.033244 0 0 1 0-63.0784L421.091556 23.483733a43.713422 43.713422 0 0 1 62.327466 0 45.033244 45.033244 0 0 1 0 63.101156L86.471111 488.402489a43.576889 43.576889 0 0 1-31.1296 13.061689z m396.856889 401.840355c-11.264 0-22.641778-4.369067-31.220623-13.061689L24.1664 488.402489a45.033244 45.033244 0 0 1 0-63.0784 43.713422 43.713422 0 0 1 62.327467 0L483.419022 827.164444a45.033244 45.033244 0 0 1 0 63.0784 43.645156 43.645156 0 0 1-31.220622 13.061689z" fill="#282828" p-id="4954"></path></svg>