<?xml version="1.0" standalone="no"?><!DOCTYPE svg PUBLIC "-//W3C//DTD SVG 1.1//EN" "http://www.w3.org/Graphics/SVG/1.1/DTD/svg11.dtd"><svg t="1773498193035" class="icon" viewBox="0 0 1024 1024" version="1.1" xmlns="http://www.w3.org/2000/svg" p-id="1671" xmlns:xlink="http://www.w3.org/1999/xlink" width="200" height="200"><path d="M774.4 432h-48v-65.6c0-40-32-72-72-72h-288c-40 0-72 32-72 72V432h-48v-65.6c0-66.4 53.6-120 120-120h288c66.4 0 120 53.6 120 120V432zM654.4 774.4h-288c-66.4 0-120-53.6-120-120V592h48v62.4c0 40 32 72 72 72h288c40 0 72-32 72-72V592h48v62.4c0 65.6-53.6 120-120 120z" fill="#6D7582" p-id="1672"></path><path d="M910.4 530.4h-800c-13.6 0-24-10.4-24-24s10.4-24 24-24h800c13.6 0 24 10.4 24 24s-11.2 24-24 24z" fill="#3D94FB" p-id="1673"></path><path d="M270.4 936h-60c-66.4 0-120-53.6-120-120v-64c0-13.6 10.4-24 24-24s24 10.4 24 24v64c0 40 32 72 72 72h60c13.6 0 24 10.4 24 24s-11.2 24-24 24zM113.6 296c-13.6 0-24-10.4-24-24v-64c0-66.4 53.6-120 120-120h60c13.6 0 24 10.4 24 24s-10.4 24-24 24h-60c-40 0-72 32-72 72v64c0 13.6-10.4 24-24 24zM913.6 296c-13.6 0-24-10.4-24-24v-64c0-40-32-72-72-72h-68c-13.6 0-24-10.4-24-24s10.4-24 24-24h68c66.4 0 120 53.6 120 120v64c0 13.6-10.4 24-24 24zM817.6 936h-68c-13.6 0-24-10.4-24-24s10.4-24 24-24h68c40 0 72-32 72-72v-64c0-13.6 10.4-24 24-24s24 10.4 24 24v64c0 66.4-53.6 120-120 120z" fill="#6D7582" p-id="1674"></path></svg>