<?xml version="1.0" standalone="no"?><!DOCTYPE svg PUBLIC "-//W3C//DTD SVG 1.1//EN" "http://www.w3.org/Graphics/SVG/1.1/DTD/svg11.dtd"><svg t="1773497912139" class="icon" viewBox="0 0 1024 1024" version="1.1" xmlns="http://www.w3.org/2000/svg" p-id="1740" xmlns:xlink="http://www.w3.org/1999/xlink" width="200" height="200"><path d="M298.688 554.688c0-23.616 19.072-42.688 42.624-42.688h0.384a42.688 42.688 0 0 1 0 85.312h-0.384a42.688 42.688 0 0 1-42.624-42.624zM469.12 554.688c0-23.616 19.136-42.688 42.688-42.688h0.384a42.688 42.688 0 0 1 0 85.312h-0.384a42.688 42.688 0 0 1-42.688-42.624zM639.616 554.688c0-23.616 19.136-42.688 42.688-42.688h0.384a42.688 42.688 0 1 1 0 85.312h-0.384a42.688 42.688 0 0 1-42.688-42.624zM298.688 725.312c0-23.552 19.072-42.624 42.624-42.624h0.384a42.688 42.688 0 1 1 0 85.312h-0.384a42.688 42.688 0 0 1-42.624-42.688zM469.12 725.312c0-23.552 19.136-42.624 42.688-42.624h0.384a42.688 42.688 0 1 1 0 85.312h-0.384a42.688 42.688 0 0 1-42.688-42.688z" fill="#333333" p-id="1741"></path><path d="M256 53.312a32 32 0 0 1 32 32v15.616C336.512 96 396.16 96 468.864 96h86.272c72.768 0 132.416 0 180.864 4.928v-15.616a32 32 0 1 1 64 0v27.136c34.368 9.728 63.36 25.536 87.424 51.584 33.152 35.84 47.936 81.216 55.04 138.048 6.848 55.68 6.848 126.976 6.848 218.048v26.432c0 91.008 0 162.368-6.912 218.048-7.04 56.832-21.76 102.144-55.04 138.048-33.472 36.224-76.352 52.672-130.048 60.48-51.968 7.552-118.4 7.552-202.176 7.552H468.864c-83.776 0-150.144 0-202.112-7.552-53.76-7.808-96.64-24.256-130.112-60.48-33.28-35.84-48-81.28-55.04-138.048-6.912-55.68-6.912-127.04-6.912-218.048v-26.432c0-91.072 0-162.368 6.912-218.048 7.04-56.832 21.76-102.144 55.04-138.048 24.064-26.048 53.056-41.856 87.36-51.584v-27.136a32 32 0 0 1 32-32z m0 149.376a32 32 0 0 1-30.72-23.232 110.208 110.208 0 0 0-41.664 28.032c-20.16 21.76-32.128 51.648-38.4 101.824h733.632c-6.336-50.176-18.24-80-38.4-101.824a110.208 110.208 0 0 0-41.6-28.032 32 32 0 0 1-62.848-8.768v-5.376C690.752 160.064 632.32 160 552.512 160H471.488c-79.68 0-138.24 0.064-183.488 5.312v5.376a32 32 0 0 1-32 32z m627.648 170.624H140.352c-1.664 40.832-1.664 89.6-1.664 149.12v21.888c0 93.76 0 161.152 6.4 212.416 6.336 50.56 18.24 80.576 38.528 102.4 19.84 21.568 46.72 33.984 92.288 40.64 46.848 6.784 108.608 6.912 195.584 6.912h81.024c87.04 0 148.736-0.128 195.584-6.912 45.632-6.656 72.448-19.072 92.352-40.576 20.224-21.888 32.192-51.904 38.464-102.464 6.4-51.264 6.4-118.656 6.4-212.48v-21.888c0-59.392 0-108.16-1.664-149.056z" fill="#333333" p-id="1742"></path></svg>